<svg id="Capa_1" data-name="Capa 1" xmlns="http://www.w3.org/2000/svg" viewBox="0 0 897.69 900.61"><defs><style>.cls-1{fill:#223871;}.cls-2{fill:#049177;}.cls-3{fill:none;}.cls-4{fill:#5e5f5f;}</style></defs><path class="cls-1" d="M782.82,793h0a10.23,10.23,0,0,1-10.22,10.22h-396V757.69H719.35a10.21,10.21,0,0,0,10.09-11.81l-55.32-349h17.4a33.54,33.54,0,0,1,33.12,28.28l52.72,332.49,5.33,33.66A9.59,9.59,0,0,1,782.82,793Z" transform="translate(-63.31 -122.55)"/><path class="cls-2" d="M687.32,259v4.7c0,22.52-17.43,40.77-38.93,40.77H337.69L283.82,665.23H239.89l53.85-360.78L300,262.82a4.41,4.41,0,0,1,4.29-3.84Z" transform="translate(-63.31 -122.55)"/><line class="cls-3" x1="269.3" y1="674.55" x2="179.87" y2="585.12"/><polygon class="cls-4" points="268.33 674.99 239.62 646.96 207.07 615.19 178.37 587.16 181.87 587.12 267.27 586.09 268.31 673.57 268.33 674.99"/><polygon class="cls-4" points="242.06 644.48 240.65 645.9 239.62 646.96 207.07 615.19 208.5 613.75 209.58 612.64 242.06 644.48"/><polygon class="cls-4" points="239.62 646.96 222.31 664.62 209.61 677.58 176.83 677.58 176.83 646.05 190.51 632.11 207.07 615.19 239.62 646.96"/><path class="cls-2" d="M638.74,519.46a51,51,0,0,1-10.08,30.42L618,560.47l-35.6,35.38-62.1-62.49,8.82-8.76a25,25,0,0,0,9.82.06c9.83-1.65,21.42-8,31.55-18,12.52-12.45,19.36-27.2,18.69-38.08a21.61,21.61,0,0,0-.44-3.17l8.35-8.31,21.16,21.29L628.81,489s0,0,0,0A51.11,51.11,0,0,1,638.74,519.46Z" transform="translate(-63.31 -122.55)"/><path class="cls-1" d="M585.79,445.64,577.42,454a20.46,20.46,0,0,0-3.65-.48c-8.52-.41-19.34,3.67-29.58,11.38a82.72,82.72,0,0,0-8.14,7.09c-.36.37-.72.73-1.07,1.1-9.31,9.61-15.28,20.46-17.07,29.8a25.63,25.63,0,0,0-.09,10.35L509,522l-62.09-62.48,34.57-34.36,3.16-3.14,0-.05a50.11,50.11,0,0,1,4.28-4.7,47.87,47.87,0,0,1,3.86-3.38l.09-.07a50,50,0,0,1,59.86-1.35l11.93,12a0,0,0,0,0,0,0Z" transform="translate(-63.31 -122.55)"/><path class="cls-1" d="M572.37,605.82l-78.14,77.67-.2-.2A96.25,96.25,0,1,1,367.76,538.14l69.11-68.67Z" transform="translate(-63.31 -122.55)"/><path class="cls-4" d="M573.51,480.52h0a68.34,68.34,0,0,1-29.11,28.93,24.62,24.62,0,0,1-5,1.74c-3,.67-5.5.35-7-1.14s-1.8-4.2-1-7.45a28.46,28.46,0,0,1,1.67-4.55,61.4,61.4,0,0,1,12.34-16.72,71.35,71.35,0,0,1,9.31-7.85,48.15,48.15,0,0,1,7.46-4.37h0c3.82-1.75,7.17-2.45,9.6-1.9a5,5,0,0,1,2,1h0q.18.15.36.33a4.59,4.59,0,0,1,1.12,1.88C576.12,472.83,575.42,476.41,573.51,480.52Z" transform="translate(-63.31 -122.55)"/><path class="cls-4" d="M602.27,405.44a60.77,60.77,0,0,1-.9,41.18l-5.77-6.74a52.35,52.35,0,0,0-6.79-44.4s0,0,0-.05a57.49,57.49,0,0,1-6.7-7.89h0a60.07,60.07,0,0,1-4-62.47,0,0,0,0,1,0,0,118.71,118.71,0,0,0,9.45-13.15,120.55,120.55,0,0,0,17.93-63.58c0-65.09-50.89-117.87-113.65-117.87S378.13,183.23,378.13,248.32c0,3.59.15,7.16.45,10.66h-7.65c-.28-3.52-.42-7.08-.42-10.66,0-69.45,54.29-125.77,121.27-125.77S613,178.87,613,248.32a129.11,129.11,0,0,1-11,52.42,121.28,121.28,0,0,1-8.65,16.2,118.48,118.48,0,0,1-9,12.57,51.87,51.87,0,0,0,3.36,52.69,49.72,49.72,0,0,0,6.76,8s0,.05.06.06A58.7,58.7,0,0,1,602.27,405.44Z" transform="translate(-63.31 -122.55)"/><line class="cls-3" x1="315.06" y1="136.43" x2="307.61" y2="136.43"/><path class="cls-1" d="M145.81,842.45v35.07c0,20.49-4,35.19-12.12,43.82S114,934.49,98.76,934.49H66.15c-1.81,0-2.71-.9-2.84-2.83V842.45c0-1.8.9-2.7,2.84-2.83H83.68c1.8,0,2.7.9,2.83,2.83v71.42H98.76c7.6,0,13.53-2.71,17.66-8.12s6.19-14.83,6.19-28.23V842.45c0-1.8.9-2.7,2.83-2.83H143C144.78,839.62,145.68,840.52,145.81,842.45Z" transform="translate(-63.31 -122.55)"/><path class="cls-1" d="M153.29,931.66V896.59c0-20.49,4-35.19,12.11-43.82s19.73-13.15,34.94-13.15H233c1.8,0,2.71.9,2.84,2.83v89.21c0,1.8-.91,2.7-2.84,2.83H215.42c-1.81,0-2.71-.9-2.84-2.83V917.09H176.49v14.57c0,1.8-.9,2.7-2.84,2.83H156.12C154.32,934.49,153.42,933.59,153.29,931.66Zm47.05-71.42c-7.61,0-13.54,2.71-17.66,8.12s-6.19,14.83-6.19,28.11h36.09V860.24Z" transform="translate(-63.31 -122.55)"/><path class="cls-1" d="M265.82,839.62c1.93,0,2.84.9,2.84,2.83v71.42H321c1.94,0,2.84.9,2.84,2.83v15c0,1.93-.9,2.83-2.84,2.83h-72.7c-1.93,0-2.83-.9-2.83-2.83V842.45c0-1.93.9-2.83,2.83-2.83Z" transform="translate(-63.31 -122.55)"/><path class="cls-1" d="M381.45,906.39H352.7v25.27c0,1.93-.9,2.83-2.83,2.83H332.34c-1.94,0-2.84-.9-2.84-2.83V842.45c0-1.93.9-2.83,2.84-2.83h49.11c10.57,0,18.69,3.48,24.49,10.57a35.89,35.89,0,0,1,8.64,23.72,34,34,0,0,1-8.38,22.94C400.65,903.17,392.41,906.39,381.45,906.39ZM352.7,885.77h28.75c6.57,0,9.92-4.26,9.92-12.77s-3.35-12.76-9.92-12.76H352.7Z" transform="translate(-63.31 -122.55)"/><path class="cls-4" d="M454.41,931.66V842.45c0-1.93.9-2.83,2.83-2.83h40.09c14.57,0,25.4,4.12,32.61,12.37s10.83,19.85,10.83,35.32c0,15.21-3.61,26.94-10.95,35.07s-18.18,12.11-32.49,12.11H457.24C455.31,934.49,454.41,933.59,454.41,931.66Zm42.92-17.79c6.32,0,11.09-2.45,14.18-7.22s4.77-11.73,4.77-20.63-1.68-15.34-5.16-19.59a17.05,17.05,0,0,0-13.79-6.19H477.61v53.63Z" transform="translate(-63.31 -122.55)"/><path class="cls-4" d="M568.74,839.62c1.94,0,2.84.9,2.84,2.83v89.21c0,1.93-.9,2.83-2.84,2.83H551.21c-1.93,0-2.83-.9-2.83-2.83V842.45c0-1.93.9-2.83,2.83-2.83Z" transform="translate(-63.31 -122.55)"/><path class="cls-4" d="M589.63,922.38c-7.35-8.13-11-19.86-11-35.07,0-15.47,3.61-27.2,10.83-35.32s18-12.37,32.61-12.37h37.51c1.93,0,2.84.9,2.84,2.83v15c0,1.93-.91,2.83-2.84,2.83H622.11a17.05,17.05,0,0,0-13.79,6.19c-3.48,4.25-5.16,10.7-5.16,19.59s1.55,15.73,4.77,20.63,7.86,7.22,14.18,7.22h19.72v-16.5H625.59c-1.93,0-2.84-.9-2.84-2.84V879.58c0-1.93.91-2.84,2.84-2.84H662.2c1.93,0,2.83.91,2.83,2.84v52.08c0,1.93-.9,2.83-2.83,2.83H622.11C607.8,934.49,597,930.5,589.63,922.38Z" transform="translate(-63.31 -122.55)"/><path class="cls-4" d="M694.81,839.62c1.94,0,2.84.9,2.84,2.83v89.21c0,1.93-.9,2.83-2.84,2.83H677.28c-1.93,0-2.83-.9-2.83-2.83V842.45c0-1.93.9-2.83,2.83-2.83Z" transform="translate(-63.31 -122.55)"/><path class="cls-4" d="M703.32,857.41v-15c0-1.93.9-2.83,2.84-2.83H783c1.94,0,2.84.9,2.84,2.83v15c0,1.93-.9,2.83-2.84,2.83H756.17v71.42c0,1.93-.9,2.83-2.84,2.83H735.8c-1.93,0-2.83-.9-2.83-2.83V860.24H706.16C704.22,860.24,703.32,859.34,703.32,857.41Z" transform="translate(-63.31 -122.55)"/><path class="cls-4" d="M790.46,931.66V896.59c0-20.49,4-35.19,12.12-43.82s19.72-13.15,34.93-13.15h32.61c1.81,0,2.71.9,2.84,2.83v89.21c0,1.8-.9,2.7-2.84,2.83H852.59c-1.8,0-2.71-.9-2.83-2.83V917.09h-36.1v14.57c0,1.8-.9,2.7-2.83,2.83H793.3C791.49,934.49,790.59,933.59,790.46,931.66Zm47-71.42c-7.61,0-13.54,2.71-17.66,8.12s-6.19,14.83-6.19,28.11h36.1V860.24Z" transform="translate(-63.31 -122.55)"/><path class="cls-4" d="M903,839.62c1.94,0,2.84.9,2.84,2.83v71.42h52.33c1.94,0,2.84.9,2.84,2.83v15c0,1.93-.9,2.83-2.84,2.83h-72.7c-1.93,0-2.83-.9-2.83-2.83V842.45c0-1.93.9-2.83,2.83-2.83Z" transform="translate(-63.31 -122.55)"/><path class="cls-4" d="M120.76,977V971.7h28V977ZM132,1011.35V974.94h5.56v36.41Z" transform="translate(-63.31 -122.55)"/><path class="cls-4" d="M161.15,1011.76q-5.91,0-9.16-3.3t-3.25-9.38v-3.19q0-6.33,3.12-9.79t8.8-3.47a9.74,9.74,0,0,1,8.28,3.93q2.92,3.93,2.93,11v1.85H152.78V995h13.8a9.5,9.5,0,0,0-1.79-5.37,5,5,0,0,0-4.13-1.94,6,6,0,0,0-4.88,2.07,8.84,8.84,0,0,0-1.75,5.87v3.6a7.34,7.34,0,0,0,1.87,5.4,7.1,7.1,0,0,0,5.25,1.88,8.88,8.88,0,0,0,3.36-.68,9.81,9.81,0,0,0,3-1.91l3.65,3.66a15.59,15.59,0,0,1-4.71,3.12A13.61,13.61,0,0,1,161.15,1011.76Z" transform="translate(-63.31 -122.55)"/><path class="cls-4" d="M190.94,1011.76q-5.85,0-9.05-3.22t-3.2-9.08V994.8q0-5.82,3.2-9t9.05-3.18a14.7,14.7,0,0,1,6,1.18,10.16,10.16,0,0,1,4.25,3.35l-4,3.6a8.11,8.11,0,0,0-6.16-2.84,6.68,6.68,0,0,0-5,1.8,6.91,6.91,0,0,0-1.78,5.08v4.66a7.08,7.08,0,0,0,1.78,5.18,6.61,6.61,0,0,0,5,1.83,7.52,7.52,0,0,0,3.38-.79,8.2,8.2,0,0,0,2.78-2.24l4,3.88a10.18,10.18,0,0,1-4.27,3.28A14.8,14.8,0,0,1,190.94,1011.76Z" transform="translate(-63.31 -122.55)"/><path class="cls-4" d="M207.33,1011.35V983h5.56v28.31Zm17.18,0V994.2a6.5,6.5,0,0,0-1.54-4.64,5.74,5.74,0,0,0-4.38-1.64,5.8,5.8,0,0,0-4.21,1.45,5.41,5.41,0,0,0-1.49,4.06l-.57-5.45a10.1,10.1,0,0,1,3.42-4,8.39,8.39,0,0,1,4.68-1.39,8.78,8.78,0,0,1,7.13,3c1.68,2,2.53,4.85,2.53,8.52v17.18Z" transform="translate(-63.31 -122.55)"/><path class="cls-4" d="M249.39,1011.76c-3.71,0-6.59-1.07-8.62-3.23s-3.06-5.19-3.06-9.1v-4.6q0-5.82,3.06-9c2-2.12,4.91-3.19,8.62-3.19s6.58,1.07,8.61,3.19,3.06,5.13,3.06,9v4.69q0,5.84-3.06,9T249.39,1011.76Zm0-5.29a5.66,5.66,0,0,0,4.51-1.83,7.53,7.53,0,0,0,1.6-5.12v-4.69a7.47,7.47,0,0,0-1.6-5.11,6.54,6.54,0,0,0-9,0,7.37,7.37,0,0,0-1.61,5.11v4.69a7.43,7.43,0,0,0,1.61,5.12A5.67,5.67,0,0,0,249.39,1006.47Z" transform="translate(-63.31 -122.55)"/><path class="cls-4" d="M274.53,971.7V1004a2.53,2.53,0,0,0,.45,1.59,1.53,1.53,0,0,0,1.27.57h2.62v5.29H275.6a6.21,6.21,0,0,1-4.88-2A8,8,0,0,1,269,1004V971.7Z" transform="translate(-63.31 -122.55)"/><path class="cls-4" d="M296,1011.76c-3.71,0-6.58-1.07-8.62-3.23s-3.05-5.19-3.05-9.1v-4.6q0-5.82,3.05-9c2-2.12,4.91-3.19,8.62-3.19s6.58,1.07,8.62,3.19,3.05,5.13,3.05,9v4.69q0,5.84-3.05,9T296,1011.76Zm0-5.29a5.66,5.66,0,0,0,4.51-1.83,7.48,7.48,0,0,0,1.6-5.12v-4.69a7.42,7.42,0,0,0-1.6-5.11,6.54,6.54,0,0,0-9,0,7.42,7.42,0,0,0-1.61,5.11v4.69a7.48,7.48,0,0,0,1.61,5.12A5.67,5.67,0,0,0,296,1006.47Z" transform="translate(-63.31 -122.55)"/><path class="cls-4" d="M324.56,1011.84a9,9,0,0,1-7.25-3q-2.55-3-2.55-8.5v-6.24c0-3.67.84-6.52,2.5-8.53a8.63,8.63,0,0,1,7-3,8.49,8.49,0,0,1,4.6,1.31,9.69,9.69,0,0,1,3.37,3.68l-.57,5.78a6.67,6.67,0,0,0-.66-3.08,4.53,4.53,0,0,0-1.9-2,6.31,6.31,0,0,0-3-.67,5.41,5.41,0,0,0-4.27,1.72,7.08,7.08,0,0,0-1.51,4.83v6.16a6.83,6.83,0,0,0,1.51,4.76,5.45,5.45,0,0,0,4.27,1.68,6.09,6.09,0,0,0,3-.69,4.67,4.67,0,0,0,1.9-2,6.9,6.9,0,0,0,.66-3.14l.38,6a8.48,8.48,0,0,1-2.64,3.42A7.45,7.45,0,0,1,324.56,1011.84Zm.51,11a13.28,13.28,0,0,1-5.71-1.18,9.17,9.17,0,0,1-3.91-3.34l3.76-3.41a7.94,7.94,0,0,0,2.6,2.32,7.33,7.33,0,0,0,8.12-1,6.77,6.77,0,0,0,1.75-5V983h5.56v27.47q0,5.9-3.18,9.12T325.07,1022.86Z" transform="translate(-63.31 -122.55)"/><path class="cls-4" d="M348.94,977.59l-3.49-2.81,7.8-9.69,4,3.33Zm-3.25,33.76V983h5.57v28.31Z" transform="translate(-63.31 -122.55)"/><path class="cls-4" d="M368.77,1011.76c-3.47,0-6.08-.72-7.81-2.15s-2.61-3.64-2.61-6.6.8-4.93,2.39-6.32,4-2.08,7.16-2.08h8l.38,4.47h-8.4a4.73,4.73,0,0,0-3.24,1,3.74,3.74,0,0,0-1.09,3,3.67,3.67,0,0,0,1.44,3.19,7.47,7.47,0,0,0,4.34,1,12.5,12.5,0,0,0,4.75-.69,2.24,2.24,0,0,0,1.58-2.12l.57,4a6.44,6.44,0,0,1-1.83,1.88,7.93,7.93,0,0,1-2.49,1.1A12.4,12.4,0,0,1,368.77,1011.76Zm6.93-.41V993.41a6,6,0,0,0-1.49-4.33,5.61,5.61,0,0,0-4.21-1.54,10.91,10.91,0,0,0-3.29.51,9.31,9.31,0,0,0-2.9,1.46l-4.07-2.79a10.65,10.65,0,0,1,4.24-3,15.31,15.31,0,0,1,5.85-1.08c3.55,0,6.29.92,8.24,2.76s2.92,4.43,2.92,7.77v18.19Z" transform="translate(-63.31 -122.55)"/><path class="cls-4" d="M412.74,1013.67,401.45,983h5.67l8.7,24.6Zm8.1-30.63h5.67L414.46,1018a7.2,7.2,0,0,1-2.92,4,10.24,10.24,0,0,1-5.24,1.13h-1.12v-5.34h1.12a4.28,4.28,0,0,0,2.47-.63,5,5,0,0,0,1.59-2.15Z" transform="translate(-63.31 -122.55)"/><path class="cls-4" d="M457.85,1011.76q-5.84,0-9-3.22t-3.21-9.08V994.8q0-5.82,3.21-9t9-3.18a14.64,14.64,0,0,1,6,1.18,10.25,10.25,0,0,1,4.26,3.35l-4,3.6a8.15,8.15,0,0,0-6.17-2.84,6.69,6.69,0,0,0-5,1.8,7,7,0,0,0-1.77,5.08v4.66a7.12,7.12,0,0,0,1.77,5.18,6.63,6.63,0,0,0,5,1.83,7.52,7.52,0,0,0,3.38-.79,8.23,8.23,0,0,0,2.79-2.24l4,3.88a10.24,10.24,0,0,1-4.27,3.28A14.85,14.85,0,0,1,457.85,1011.76Z" transform="translate(-63.31 -122.55)"/><path class="cls-4" d="M483.3,1011.76q-5.21,0-7.82-2.15t-2.6-6.6c0-2.82.79-4.93,2.39-6.32s4-2.08,7.16-2.08h8l.38,4.47h-8.4a4.72,4.72,0,0,0-3.24,1,3.74,3.74,0,0,0-1.09,3,3.67,3.67,0,0,0,1.44,3.19,7.47,7.47,0,0,0,4.34,1,12.4,12.4,0,0,0,4.74-.69,2.24,2.24,0,0,0,1.59-2.12l.57,4a6.44,6.44,0,0,1-1.83,1.88,8,8,0,0,1-2.49,1.1A12.4,12.4,0,0,1,483.3,1011.76Zm6.93-.41V993.41a6,6,0,0,0-1.49-4.33,5.61,5.61,0,0,0-4.21-1.54,10.91,10.91,0,0,0-3.29.51,9.47,9.47,0,0,0-2.91,1.46l-4.06-2.79a10.65,10.65,0,0,1,4.24-3,15.31,15.31,0,0,1,5.85-1.08c3.55,0,6.29.92,8.24,2.76s2.92,4.43,2.92,7.77v18.19Z" transform="translate(-63.31 -122.55)"/><path class="cls-4" d="M509.54,971.7V1004a2.53,2.53,0,0,0,.45,1.59,1.51,1.51,0,0,0,1.26.57h2.62v5.29H510.6a6.21,6.21,0,0,1-4.88-2A8,8,0,0,1,504,1004V971.7Z" transform="translate(-63.31 -122.55)"/><path class="cls-4" d="M520.15,977.26V971.7h5.56v5.56Zm0,34.09V983h5.56v28.31Z" transform="translate(-63.31 -122.55)"/><path class="cls-4" d="M543.14,1011.84a9,9,0,0,1-7.24-3q-2.55-3-2.55-8.5v-6.24c0-3.67.83-6.52,2.49-8.53a8.66,8.66,0,0,1,7-3,8.49,8.49,0,0,1,4.59,1.31,9.62,9.62,0,0,1,3.37,3.68l-.57,5.78a6.67,6.67,0,0,0-.66-3.08,4.45,4.45,0,0,0-1.89-2,6.34,6.34,0,0,0-3-.67,5.41,5.41,0,0,0-4.27,1.72,7.08,7.08,0,0,0-1.52,4.83v6.16a6.84,6.84,0,0,0,1.52,4.76,5.45,5.45,0,0,0,4.27,1.68,6.12,6.12,0,0,0,3-.69,4.59,4.59,0,0,0,1.89-2,6.9,6.9,0,0,0,.66-3.14l.38,6a8.54,8.54,0,0,1-2.63,3.42A7.5,7.5,0,0,1,543.14,1011.84Zm7.12-.49V971.7h5.56v39.65Z" transform="translate(-63.31 -122.55)"/><path class="cls-4" d="M573.33,1011.76c-3.47,0-6.08-.72-7.81-2.15s-2.61-3.64-2.61-6.6.8-4.93,2.39-6.32,4-2.08,7.16-2.08h8l.38,4.47h-8.4a4.75,4.75,0,0,0-3.25,1,3.74,3.74,0,0,0-1.09,3,3.65,3.65,0,0,0,1.45,3.19,7.43,7.43,0,0,0,4.33,1,12.5,12.5,0,0,0,4.75-.69,2.24,2.24,0,0,0,1.58-2.12l.57,4a6.53,6.53,0,0,1-1.82,1.88,8,8,0,0,1-2.5,1.1A12.34,12.34,0,0,1,573.33,1011.76Zm6.93-.41V993.41a6,6,0,0,0-1.49-4.33,5.6,5.6,0,0,0-4.21-1.54,11,11,0,0,0-3.29.51,9.31,9.31,0,0,0-2.9,1.46l-4.06-2.79a10.58,10.58,0,0,1,4.24-3,15.24,15.24,0,0,1,5.85-1.08c3.54,0,6.29.92,8.23,2.76s2.92,4.43,2.92,7.77v18.19Z" transform="translate(-63.31 -122.55)"/><path class="cls-4" d="M603,1011.84a9,9,0,0,1-7.24-3q-2.55-3-2.55-8.5v-6.24c0-3.67.83-6.52,2.5-8.53a9.31,9.31,0,0,1,11.62-1.7,9.59,9.59,0,0,1,3.36,3.68l-.57,5.78a6.8,6.8,0,0,0-.65-3.08,4.53,4.53,0,0,0-1.9-2,6.34,6.34,0,0,0-3-.67,5.41,5.41,0,0,0-4.27,1.72,7.08,7.08,0,0,0-1.52,4.83v6.16a6.84,6.84,0,0,0,1.52,4.76,5.45,5.45,0,0,0,4.27,1.68,6.12,6.12,0,0,0,3-.69,4.67,4.67,0,0,0,1.9-2,7,7,0,0,0,.65-3.14l.38,6a8.45,8.45,0,0,1-2.63,3.42A7.48,7.48,0,0,1,603,1011.84Zm7.12-.49V971.7h5.57v39.65Z" transform="translate(-63.31 -122.55)"/><path class="cls-4" d="M650.71,1011.76q-5.91,0-9.16-3.3t-3.25-9.38v-3.19q0-6.33,3.13-9.79t8.79-3.47a9.71,9.71,0,0,1,8.28,3.93q2.94,3.93,2.93,11v1.85H642.34V995h13.8a9.57,9.57,0,0,0-1.78-5.37,5,5,0,0,0-4.14-1.94,6,6,0,0,0-4.88,2.07,8.9,8.9,0,0,0-1.75,5.87v3.6a7.38,7.38,0,0,0,1.87,5.4,7.1,7.1,0,0,0,5.25,1.88,8.88,8.88,0,0,0,3.36-.68,9.69,9.69,0,0,0,3-1.91l3.66,3.66a15.64,15.64,0,0,1-4.72,3.12A13.57,13.57,0,0,1,650.71,1011.76Z" transform="translate(-63.31 -122.55)"/><path class="cls-4" d="M669.07,1011.35V983h5.56v28.31Zm17.18,0V994.2a6.5,6.5,0,0,0-1.54-4.64,5.74,5.74,0,0,0-4.38-1.64,5.81,5.81,0,0,0-4.21,1.45,5.41,5.41,0,0,0-1.49,4.06l-.57-5.45a10.1,10.1,0,0,1,3.42-4,8.39,8.39,0,0,1,4.68-1.39,8.78,8.78,0,0,1,7.13,3q2.54,3,2.53,8.52v17.18Z" transform="translate(-63.31 -122.55)"/><path class="cls-4" d="M720.84,983v17.21a6.49,6.49,0,0,0,1.51,4.6,5.56,5.56,0,0,0,4.27,1.62,5.76,5.76,0,0,0,4.24-1.46,5.49,5.49,0,0,0,1.49-4.1l.38,5.92a8.39,8.39,0,0,1-2.67,3.42,7.81,7.81,0,0,1-5,1.51,9,9,0,0,1-7.25-3q-2.55-3-2.55-8.5V983Zm11.51,28.31V983h5.54v28.31Z" transform="translate(-63.31 -122.55)"/><path class="cls-4" d="M746.34,1011.35V983h5.56v28.31Zm17.18,0V994.2a6.5,6.5,0,0,0-1.54-4.64,5.7,5.7,0,0,0-4.37-1.64,5.82,5.82,0,0,0-4.22,1.45,5.41,5.41,0,0,0-1.49,4.06l-.57-5.45a10.26,10.26,0,0,1,3.42-4,8.39,8.39,0,0,1,4.68-1.39,8.8,8.8,0,0,1,7.14,3q2.52,3,2.52,8.52v17.18Z" transform="translate(-63.31 -122.55)"/><path class="cls-4" d="M804,1011.76q-5.84,0-9-3.22t-3.2-9.08V994.8q0-5.82,3.2-9t9-3.18a14.64,14.64,0,0,1,6,1.18,10.19,10.19,0,0,1,4.26,3.35l-4,3.6a8.11,8.11,0,0,0-6.17-2.84,6.71,6.71,0,0,0-5,1.8,7,7,0,0,0-1.77,5.08v4.66a7.12,7.12,0,0,0,1.77,5.18,6.64,6.64,0,0,0,5,1.83,7.56,7.56,0,0,0,3.39-.79,8.2,8.2,0,0,0,2.78-2.24l4,3.88a10.24,10.24,0,0,1-4.27,3.28A14.85,14.85,0,0,1,804,1011.76Z" transform="translate(-63.31 -122.55)"/><path class="cls-4" d="M825.93,971.7V1004a2.53,2.53,0,0,0,.45,1.59,1.52,1.52,0,0,0,1.27.57h2.62v5.29H827a6.21,6.21,0,0,1-4.88-2,8.09,8.09,0,0,1-1.74-5.54V971.7Z" transform="translate(-63.31 -122.55)"/><path class="cls-4" d="M836.54,977.26V971.7h5.56v5.56Zm0,34.09V983h5.56v28.31Z" transform="translate(-63.31 -122.55)"/><path class="cls-4" d="M862,1011.76q-5.84,0-9-3.22t-3.21-9.08V994.8q0-5.82,3.21-9t9-3.18a14.64,14.64,0,0,1,6,1.18,10.16,10.16,0,0,1,4.25,3.35l-4,3.6a8.11,8.11,0,0,0-6.16-2.84,6.68,6.68,0,0,0-5,1.8,6.91,6.91,0,0,0-1.78,5.08v4.66a7.08,7.08,0,0,0,1.78,5.18,6.61,6.61,0,0,0,5,1.83,7.52,7.52,0,0,0,3.38-.79,8.2,8.2,0,0,0,2.78-2.24l4,3.88a10.18,10.18,0,0,1-4.27,3.28A14.8,14.8,0,0,1,862,1011.76Z" transform="translate(-63.31 -122.55)"/><path class="cls-4" d="M878.38,1011.35V971.7h5.56v39.65Zm2-4.14.35-6.6L895.34,983h6.55Zm16.8,4.14L887.35,995l3.58-3.71,12.35,20Z" transform="translate(-63.31 -122.55)"/></svg>